<svg xmlns="http://www.w3.org/2000/svg" viewBox="0 0 271 72" width="271" height="72">
	<path id="Layer" fill-rule="evenodd" class="shp0" fill="#ff7058" d="M70.92 38.25C70.44 45.73 67.53 52.74 62.59 58.37C56.5 65.3 48.2 69.33 39.27 69.91C20.36 71.16 4.29 56.82 3.07 38.25C2.98 36.76 2.98 35.2 3.07 33.72C3.56 26.24 6.46 19.23 11.41 13.6C18.59 5.43 28.79 1.36 39.27 2.06C48.48 2.66 56.69 6.89 62.59 13.6C68.71 20.57 71.51 29.42 70.92 38.25ZM63.35 33.72C62.87 28.12 60.65 23.02 57.23 18.96C56.25 17.81 55.18 16.74 54.02 15.76C49.96 12.34 44.86 10.11 39.27 9.64C38.52 9.57 37.76 9.54 37 9.54C36.24 9.54 35.48 9.57 34.73 9.64C29.14 10.11 24.04 12.34 19.98 15.76C18.82 16.74 17.75 17.81 16.77 18.96C13.35 23.02 11.13 28.12 10.65 33.72C10.52 35.23 10.52 36.73 10.65 38.25C11.13 43.84 13.35 48.94 16.77 53C17.75 54.16 18.82 55.23 19.98 56.21C25.37 60.75 32.26 62.93 39.27 62.33C44.86 61.86 49.96 59.63 54.02 56.21C60.7 50.56 64.07 42.22 63.35 33.72Z" />
	<g id="Layer">
		<path id="Layer" class="shp1" fill="#f1543f" d="M62.59 13.6C56.69 6.89 48.48 2.66 39.27 2.06C38.51 2.01 37.75 1.99 37 1.98L37 9.54C37 9.54 37 9.54 37 9.54C37.76 9.54 38.52 9.57 39.27 9.64C44.86 10.11 49.96 12.34 54.02 15.76C55.18 16.74 56.25 17.81 57.23 18.96C60.65 23.02 62.87 28.12 63.35 33.72C64.07 42.22 60.7 50.56 54.02 56.21C49.96 59.63 44.86 61.86 39.27 62.33C38.51 62.4 37.75 62.43 37 62.43L37 69.98C37.75 69.98 38.51 69.96 39.27 69.91C48.2 69.33 56.5 65.3 62.59 58.37C67.53 52.74 70.44 45.73 70.92 38.25C71.51 29.42 68.71 20.57 62.59 13.6Z" />
		<path id="Layer" class="shp1" fill="#f1543f" d="M39.27 2.06L39.27 9.64C38.52 9.57 37.76 9.54 37 9.54C36.24 9.54 35.48 9.57 34.73 9.64L34.73 2.06C36.22 1.96 37.78 1.96 39.27 2.06Z" />
		<path id="Layer" class="shp1" fill="#f1543f" d="M39.27 62.33L39.27 69.91C37.78 70.01 36.22 70.01 34.73 69.91L34.73 62.33C36.23 62.46 37.73 62.46 39.27 62.33Z" />
		<path id="Layer" class="shp1" fill="#f1543f" d="M19.98 15.76C18.82 16.74 17.75 17.81 16.77 18.96L11.41 13.6C12.42 12.44 13.46 11.41 14.61 10.39L19.98 15.76Z" />
		<path id="Layer" class="shp1" fill="#f1543f" d="M10.65 38.25L3.07 38.25C2.98 36.76 2.98 35.21 3.07 33.72L10.65 33.72C10.52 35.23 10.52 36.73 10.65 38.25Z" />
		<path id="Layer" class="shp1" fill="#f1543f" d="M19.98 56.21L14.61 61.58C13.46 60.56 12.42 59.53 11.41 58.37L16.77 53C17.75 54.16 18.82 55.23 19.98 56.21Z" />
	</g>
	<g id="Layer">
		<path id="Layer" class="shp2" fill="#e03e34" d="M37 1.98L37 9.54C37.76 9.54 38.52 9.57 39.27 9.64L39.27 2.06C38.52 2.01 37.76 1.98 37 1.98Z" />
		<path id="Layer" class="shp2" fill="#e03e34" d="M37 62.43L37 69.98C37.76 69.98 38.52 69.96 39.27 69.91L39.27 62.33C38.5 62.4 37.75 62.43 37 62.43Z" />
		<path id="Layer" class="shp2" fill="#e03e34" d="M62.59 58.37C61.58 59.52 60.54 60.56 59.39 61.58L54.02 56.21C55.18 55.23 56.25 54.16 57.23 53L62.59 58.37Z" />
		<path id="Layer" class="shp2" fill="#e03e34" d="M70.92 38.25L63.35 38.25C63.48 36.73 63.48 35.23 63.35 33.72L70.92 33.72C71.02 35.2 71.02 36.76 70.92 38.25Z" />
		<path id="Layer" class="shp2" fill="#e03e34" d="M62.59 13.6L57.23 18.96C56.25 17.81 55.18 16.74 54.02 15.76L59.39 10.39C60.54 11.41 61.58 12.44 62.59 13.6Z" />
	</g>
	<path id="Chakri " fill="#000000" d="M99.02 50.62Q105.32 50.62 111.08 48.46L113.12 54.94Q108.26 56.44 103.22 56.44Q98.18 56.44 94.22 55.36Q90.32 54.28 88.22 52.54Q87.2 47.5 87.2 42.58Q87.2 32.56 90.98 24.4Q94.76 16.24 99.68 13L111.26 20.32Q102.98 25.6 98.12 33.76Q93.26 41.92 93.26 50.2Q95.84 50.62 99.02 50.62ZM141.26 23.62Q142.34 23.62 143.42 23.98Q146.48 27.7 147.62 36.88Q148.76 46 148.76 55L137.96 55.9Q137.96 42.1 136.94 30.76Q128.96 33.7 126.32 55.36L120.38 55.9L117.32 14.02L130.16 12.04L127.94 36.76L128.48 36.76Q130.94 30.7 134.24 27.16Q137.6 23.62 141.26 23.62ZM161.12 56.38Q160.1 56.38 159.62 56.32Q157.58 54.94 156.32 52.24Q155.12 49.48 155.12 46.54Q155.12 42.7 158 40.96Q160.94 39.22 168.74 39.22Q171.62 39.22 174.74 39.64L174.62 38.32Q174.38 35.92 172.34 34.54Q170.3 33.1 167.12 33.1Q163.94 33.1 160.76 35.08L158.12 26.38Q163.28 24.28 169.88 24.28Q176.48 24.28 180.32 27.28Q184.16 30.22 184.16 36.52Q184.16 37.96 184.04 38.8L182.36 55.36L176.42 55.9L175.52 47.2L175.04 47.2Q173 51.52 169.4 53.98Q165.8 56.38 161.12 56.38ZM174.98 42.16L171.8 42.1Q167.84 42.1 165.32 42.52Q164.48 44.2 164.48 45.52Q164.48 46.84 164.84 48.04Q165.2 49.24 165.62 49.66Q172.82 48.52 174.98 42.16ZM215.36 22.84L219.38 25.96L210.08 35.68L223.1 55.12L211.7 55.9L204.2 41.86L202.04 43.9L201.02 55.36L195.08 55.9L192.02 14.02L204.86 12.04L202.58 37.96L215.36 22.84ZM246.68 35.26Q242.6 35.26 240.5 38.14Q238.4 40.96 237.44 48.58L236.6 55.36L230.66 55.9L227.6 26.14L240.44 24.16L239.24 33.76L239.66 33.76Q244.46 23.44 251.9 22.78L250.22 35.56Q248 35.26 246.68 35.26ZM265.1 55.36L259.16 55.9L256.1 26.2L268.94 24.22L265.1 55.36ZM257.96 19.54Q256.34 17.86 256.34 15.58Q256.34 13.3 257.96 11.68Q259.64 10 261.92 10Q264.2 10 265.82 11.68Q267.5 13.3 267.5 15.58Q267.5 17.86 265.82 19.54Q264.2 21.16 261.92 21.16Q259.64 21.16 257.96 19.54Z" />
</svg>