<?xml version='1.0' encoding='utf-8'?>
<svg xmlns:xlink="http://www.w3.org/1999/xlink" xmlns="http://www.w3.org/2000/svg" id="chart-3df65bd0-5e6c-4452-bf4d-1fddd4498768" class="pygal-chart" viewBox="0 0 800 600"><!--Generated with pygal 2.4.0 (etree) ©Kozea 2012-2016 on 2021-06-10--><!--http://pygal.org--><!--http://github.com/Kozea/pygal--><defs><style type="text/css">#chart-3df65bd0-5e6c-4452-bf4d-1fddd4498768{-webkit-user-select:none;-webkit-font-smoothing:antialiased;font-family:Consolas,"Liberation Mono",Menlo,Courier,monospace}#chart-3df65bd0-5e6c-4452-bf4d-1fddd4498768 .title{font-family:Consolas,"Liberation Mono",Menlo,Courier,monospace;font-size:16px}#chart-3df65bd0-5e6c-4452-bf4d-1fddd4498768 .legends .legend text{font-family:Consolas,"Liberation Mono",Menlo,Courier,monospace;font-size:14px}#chart-3df65bd0-5e6c-4452-bf4d-1fddd4498768 .axis text{font-family:Consolas,"Liberation Mono",Menlo,Courier,monospace;font-size:10px}#chart-3df65bd0-5e6c-4452-bf4d-1fddd4498768 .axis text.major{font-family:Consolas,"Liberation Mono",Menlo,Courier,monospace;font-size:10px}#chart-3df65bd0-5e6c-4452-bf4d-1fddd4498768 .text-overlay text.value{font-family:Consolas,"Liberation Mono",Menlo,Courier,monospace;font-size:16px}#chart-3df65bd0-5e6c-4452-bf4d-1fddd4498768 .text-overlay text.label{font-family:Consolas,"Liberation Mono",Menlo,Courier,monospace;font-size:10px}#chart-3df65bd0-5e6c-4452-bf4d-1fddd4498768 .tooltip{font-family:Consolas,"Liberation Mono",Menlo,Courier,monospace;font-size:14px}#chart-3df65bd0-5e6c-4452-bf4d-1fddd4498768 text.no_data{font-family:Consolas,"Liberation Mono",Menlo,Courier,monospace;font-size:64px}
#chart-3df65bd0-5e6c-4452-bf4d-1fddd4498768{background-color:rgba(249,249,249,1)}#chart-3df65bd0-5e6c-4452-bf4d-1fddd4498768 path,#chart-3df65bd0-5e6c-4452-bf4d-1fddd4498768 line,#chart-3df65bd0-5e6c-4452-bf4d-1fddd4498768 rect,#chart-3df65bd0-5e6c-4452-bf4d-1fddd4498768 circle{-webkit-transition:150ms;-moz-transition:150ms;transition:150ms}#chart-3df65bd0-5e6c-4452-bf4d-1fddd4498768 .graph &gt; .background{fill:rgba(249,249,249,1)}#chart-3df65bd0-5e6c-4452-bf4d-1fddd4498768 .plot &gt; .background{fill:rgba(255,255,255,1)}#chart-3df65bd0-5e6c-4452-bf4d-1fddd4498768 .graph{fill:rgba(0,0,0,.87)}#chart-3df65bd0-5e6c-4452-bf4d-1fddd4498768 text.no_data{fill:rgba(0,0,0,1)}#chart-3df65bd0-5e6c-4452-bf4d-1fddd4498768 .title{fill:rgba(0,0,0,1)}#chart-3df65bd0-5e6c-4452-bf4d-1fddd4498768 .legends .legend text{fill:rgba(0,0,0,.87)}#chart-3df65bd0-5e6c-4452-bf4d-1fddd4498768 .legends .legend:hover text{fill:rgba(0,0,0,1)}#chart-3df65bd0-5e6c-4452-bf4d-1fddd4498768 .axis .line{stroke:rgba(0,0,0,1)}#chart-3df65bd0-5e6c-4452-bf4d-1fddd4498768 .axis .guide.line{stroke:rgba(0,0,0,.54)}#chart-3df65bd0-5e6c-4452-bf4d-1fddd4498768 .axis .major.line{stroke:rgba(0,0,0,.87)}#chart-3df65bd0-5e6c-4452-bf4d-1fddd4498768 .axis text.major{fill:rgba(0,0,0,1)}#chart-3df65bd0-5e6c-4452-bf4d-1fddd4498768 .axis.y .guides:hover .guide.line,#chart-3df65bd0-5e6c-4452-bf4d-1fddd4498768 .line-graph .axis.x .guides:hover .guide.line,#chart-3df65bd0-5e6c-4452-bf4d-1fddd4498768 .stackedline-graph .axis.x .guides:hover .guide.line,#chart-3df65bd0-5e6c-4452-bf4d-1fddd4498768 .xy-graph .axis.x .guides:hover .guide.line{stroke:rgba(0,0,0,1)}#chart-3df65bd0-5e6c-4452-bf4d-1fddd4498768 .axis .guides:hover text{fill:rgba(0,0,0,1)}#chart-3df65bd0-5e6c-4452-bf4d-1fddd4498768 .reactive{fill-opacity:.7;stroke-opacity:.8}#chart-3df65bd0-5e6c-4452-bf4d-1fddd4498768 .ci{stroke:rgba(0,0,0,.87)}#chart-3df65bd0-5e6c-4452-bf4d-1fddd4498768 .reactive.active,#chart-3df65bd0-5e6c-4452-bf4d-1fddd4498768 .active .reactive{fill-opacity:.8;stroke-opacity:.9;stroke-width:4}#chart-3df65bd0-5e6c-4452-bf4d-1fddd4498768 .ci .reactive.active{stroke-width:1.5}#chart-3df65bd0-5e6c-4452-bf4d-1fddd4498768 .series text{fill:rgba(0,0,0,1)}#chart-3df65bd0-5e6c-4452-bf4d-1fddd4498768 .tooltip rect{fill:rgba(255,255,255,1);stroke:rgba(0,0,0,1);-webkit-transition:opacity 150ms;-moz-transition:opacity 150ms;transition:opacity 150ms}#chart-3df65bd0-5e6c-4452-bf4d-1fddd4498768 .tooltip .label{fill:rgba(0,0,0,.87)}#chart-3df65bd0-5e6c-4452-bf4d-1fddd4498768 .tooltip .label{fill:rgba(0,0,0,.87)}#chart-3df65bd0-5e6c-4452-bf4d-1fddd4498768 .tooltip .legend{font-size:.8em;fill:rgba(0,0,0,.54)}#chart-3df65bd0-5e6c-4452-bf4d-1fddd4498768 .tooltip .x_label{font-size:.6em;fill:rgba(0,0,0,1)}#chart-3df65bd0-5e6c-4452-bf4d-1fddd4498768 .tooltip .xlink{font-size:.5em;text-decoration:underline}#chart-3df65bd0-5e6c-4452-bf4d-1fddd4498768 .tooltip .value{font-size:1.5em}#chart-3df65bd0-5e6c-4452-bf4d-1fddd4498768 .bound{font-size:.5em}#chart-3df65bd0-5e6c-4452-bf4d-1fddd4498768 .max-value{font-size:.75em;fill:rgba(0,0,0,.54)}#chart-3df65bd0-5e6c-4452-bf4d-1fddd4498768 .map-element{fill:rgba(255,255,255,1);stroke:rgba(0,0,0,.54) !important}#chart-3df65bd0-5e6c-4452-bf4d-1fddd4498768 .map-element .reactive{fill-opacity:inherit;stroke-opacity:inherit}#chart-3df65bd0-5e6c-4452-bf4d-1fddd4498768 .color-0,#chart-3df65bd0-5e6c-4452-bf4d-1fddd4498768 .color-0 a:visited{stroke:#F44336;fill:#F44336}#chart-3df65bd0-5e6c-4452-bf4d-1fddd4498768 .color-1,#chart-3df65bd0-5e6c-4452-bf4d-1fddd4498768 .color-1 a:visited{stroke:#3F51B5;fill:#3F51B5}#chart-3df65bd0-5e6c-4452-bf4d-1fddd4498768 .color-2,#chart-3df65bd0-5e6c-4452-bf4d-1fddd4498768 .color-2 a:visited{stroke:#009688;fill:#009688}#chart-3df65bd0-5e6c-4452-bf4d-1fddd4498768 .color-3,#chart-3df65bd0-5e6c-4452-bf4d-1fddd4498768 .color-3 a:visited{stroke:#FFC107;fill:#FFC107}#chart-3df65bd0-5e6c-4452-bf4d-1fddd4498768 .text-overlay .color-0 text{fill:black}#chart-3df65bd0-5e6c-4452-bf4d-1fddd4498768 .text-overlay .color-1 text{fill:black}#chart-3df65bd0-5e6c-4452-bf4d-1fddd4498768 .text-overlay .color-2 text{fill:black}#chart-3df65bd0-5e6c-4452-bf4d-1fddd4498768 .text-overlay .color-3 text{fill:black}
#chart-3df65bd0-5e6c-4452-bf4d-1fddd4498768 text.no_data{text-anchor:middle}#chart-3df65bd0-5e6c-4452-bf4d-1fddd4498768 .guide.line{fill:none}#chart-3df65bd0-5e6c-4452-bf4d-1fddd4498768 .centered{text-anchor:middle}#chart-3df65bd0-5e6c-4452-bf4d-1fddd4498768 .title{text-anchor:middle}#chart-3df65bd0-5e6c-4452-bf4d-1fddd4498768 .legends .legend text{fill-opacity:1}#chart-3df65bd0-5e6c-4452-bf4d-1fddd4498768 .axis.x text{text-anchor:middle}#chart-3df65bd0-5e6c-4452-bf4d-1fddd4498768 .axis.x:not(.web) text[transform]{text-anchor:start}#chart-3df65bd0-5e6c-4452-bf4d-1fddd4498768 .axis.x:not(.web) text[transform].backwards{text-anchor:end}#chart-3df65bd0-5e6c-4452-bf4d-1fddd4498768 .axis.y text{text-anchor:end}#chart-3df65bd0-5e6c-4452-bf4d-1fddd4498768 .axis.y text[transform].backwards{text-anchor:start}#chart-3df65bd0-5e6c-4452-bf4d-1fddd4498768 .axis.y2 text{text-anchor:start}#chart-3df65bd0-5e6c-4452-bf4d-1fddd4498768 .axis.y2 text[transform].backwards{text-anchor:end}#chart-3df65bd0-5e6c-4452-bf4d-1fddd4498768 .axis .guide.line{stroke-dasharray:4,4}#chart-3df65bd0-5e6c-4452-bf4d-1fddd4498768 .axis .major.guide.line{stroke-dasharray:6,6}#chart-3df65bd0-5e6c-4452-bf4d-1fddd4498768 .horizontal .axis.y .guide.line,#chart-3df65bd0-5e6c-4452-bf4d-1fddd4498768 .horizontal .axis.y2 .guide.line,#chart-3df65bd0-5e6c-4452-bf4d-1fddd4498768 .vertical .axis.x .guide.line{opacity:0}#chart-3df65bd0-5e6c-4452-bf4d-1fddd4498768 .horizontal .axis.always_show .guide.line,#chart-3df65bd0-5e6c-4452-bf4d-1fddd4498768 .vertical .axis.always_show .guide.line{opacity:1 !important}#chart-3df65bd0-5e6c-4452-bf4d-1fddd4498768 .axis.y .guides:hover .guide.line,#chart-3df65bd0-5e6c-4452-bf4d-1fddd4498768 .axis.y2 .guides:hover .guide.line,#chart-3df65bd0-5e6c-4452-bf4d-1fddd4498768 .axis.x .guides:hover .guide.line{opacity:1}#chart-3df65bd0-5e6c-4452-bf4d-1fddd4498768 .axis .guides:hover text{opacity:1}#chart-3df65bd0-5e6c-4452-bf4d-1fddd4498768 .nofill{fill:none}#chart-3df65bd0-5e6c-4452-bf4d-1fddd4498768 .subtle-fill{fill-opacity:.2}#chart-3df65bd0-5e6c-4452-bf4d-1fddd4498768 .dot{stroke-width:1px;fill-opacity:1}#chart-3df65bd0-5e6c-4452-bf4d-1fddd4498768 .dot.active{stroke-width:5px}#chart-3df65bd0-5e6c-4452-bf4d-1fddd4498768 .dot.negative{fill:transparent}#chart-3df65bd0-5e6c-4452-bf4d-1fddd4498768 text,#chart-3df65bd0-5e6c-4452-bf4d-1fddd4498768 tspan{stroke:none !important}#chart-3df65bd0-5e6c-4452-bf4d-1fddd4498768 .series text.active{opacity:1}#chart-3df65bd0-5e6c-4452-bf4d-1fddd4498768 .tooltip rect{fill-opacity:.95;stroke-width:.5}#chart-3df65bd0-5e6c-4452-bf4d-1fddd4498768 .tooltip text{fill-opacity:1}#chart-3df65bd0-5e6c-4452-bf4d-1fddd4498768 .showable{visibility:hidden}#chart-3df65bd0-5e6c-4452-bf4d-1fddd4498768 .showable.shown{visibility:visible}#chart-3df65bd0-5e6c-4452-bf4d-1fddd4498768 .gauge-background{fill:rgba(229,229,229,1);stroke:none}#chart-3df65bd0-5e6c-4452-bf4d-1fddd4498768 .bg-lines{stroke:rgba(249,249,249,1);stroke-width:2px}</style><script type="text/javascript">window.pygal = window.pygal || {};window.pygal.config = window.pygal.config || {};window.pygal.config['3df65bd0-5e6c-4452-bf4d-1fddd4498768'] = {"allow_interruptions": false, "box_mode": "extremes", "classes": ["pygal-chart"], "css": ["file://style.css", "file://graph.css"], "defs": [], "disable_xml_declaration": false, "dots_size": 2.5, "dynamic_print_values": false, "explicit_size": false, "fill": false, "force_uri_protocol": "https", "formatter": null, "half_pie": false, "height": 600, "include_x_axis": false, "inner_radius": 0, "interpolate": null, "interpolation_parameters": {}, "interpolation_precision": 250, "inverse_y_axis": false, "js": ["//kozea.github.io/pygal.js/2.0.x/pygal-tooltips.min.js"], "legend_at_bottom": false, "legend_at_bottom_columns": null, "legend_box_size": 12, "logarithmic": false, "margin": 20, "margin_bottom": null, "margin_left": null, "margin_right": null, "margin_top": null, "max_scale": 16, "min_scale": 4, "missing_value_fill_truncation": "x", "no_data_text": "No data", "no_prefix": false, "order_min": null, "pretty_print": false, "print_labels": false, "print_values": false, "print_values_position": "center", "print_zeroes": true, "range": null, "rounded_bars": null, "secondary_range": null, "show_dots": false, "show_legend": true, "show_minor_x_labels": false, "show_minor_y_labels": true, "show_only_major_dots": false, "show_x_guides": false, "show_x_labels": true, "show_y_guides": true, "show_y_labels": true, "spacing": 10, "stack_from_top": false, "strict": false, "stroke": true, "stroke_style": null, "style": {"background": "rgba(249, 249, 249, 1)", "ci_colors": [], "colors": ["#F44336", "#3F51B5", "#009688", "#FFC107", "#FF5722", "#9C27B0", "#03A9F4", "#8BC34A", "#FF9800", "#E91E63", "#2196F3", "#4CAF50", "#FFEB3B", "#673AB7", "#00BCD4", "#CDDC39", "#9E9E9E", "#607D8B"], "font_family": "Consolas, \"Liberation Mono\", Menlo, Courier, monospace", "foreground": "rgba(0, 0, 0, .87)", "foreground_strong": "rgba(0, 0, 0, 1)", "foreground_subtle": "rgba(0, 0, 0, .54)", "guide_stroke_dasharray": "4,4", "label_font_family": "Consolas, \"Liberation Mono\", Menlo, Courier, monospace", "label_font_size": 10, "legend_font_family": "Consolas, \"Liberation Mono\", Menlo, Courier, monospace", "legend_font_size": 14, "major_guide_stroke_dasharray": "6,6", "major_label_font_family": "Consolas, \"Liberation Mono\", Menlo, Courier, monospace", "major_label_font_size": 10, "no_data_font_family": "Consolas, \"Liberation Mono\", Menlo, Courier, monospace", "no_data_font_size": 64, "opacity": ".7", "opacity_hover": ".8", "plot_background": "rgba(255, 255, 255, 1)", "stroke_opacity": ".8", "stroke_opacity_hover": ".9", "title_font_family": "Consolas, \"Liberation Mono\", Menlo, Courier, monospace", "title_font_size": 16, "tooltip_font_family": "Consolas, \"Liberation Mono\", Menlo, Courier, monospace", "tooltip_font_size": 14, "transition": "150ms", "value_background": "rgba(229, 229, 229, 1)", "value_colors": [], "value_font_family": "Consolas, \"Liberation Mono\", Menlo, Courier, monospace", "value_font_size": 16, "value_label_font_family": "Consolas, \"Liberation Mono\", Menlo, Courier, monospace", "value_label_font_size": 10}, "title": "KDP stock price over 1 year", "tooltip_border_radius": 0, "tooltip_fancy_mode": true, "truncate_label": null, "truncate_legend": null, "width": 800, "x_label_rotation": 270, "x_labels": ["2020-06-09", "2020-06-10", "2020-06-11", "2020-06-12", "2020-06-15", "2020-06-16", "2020-06-17", "2020-06-18", "2020-06-19", "2020-06-22", "2020-06-23", "2020-06-24", "2020-06-25", "2020-06-26", "2020-06-29", "2020-06-30", "2020-07-01", "2020-07-02", "2020-07-06", "2020-07-07", "2020-07-08", "2020-07-09", "2020-07-10", "2020-07-13", "2020-07-14", "2020-07-15", "2020-07-16", "2020-07-17", "2020-07-20", "2020-07-21", "2020-07-22", "2020-07-23", "2020-07-24", "2020-07-27", "2020-07-28", "2020-07-29", "2020-07-30", "2020-07-31", "2020-08-03", "2020-08-04", "2020-08-05", "2020-08-06", "2020-08-07", "2020-08-10", "2020-08-11", "2020-08-12", "2020-08-13", "2020-08-14", "2020-08-17", "2020-08-18", "2020-08-19", "2020-08-20", "2020-08-21", "2020-08-24", "2020-08-25", "2020-08-26", "2020-08-27", "2020-08-28", "2020-08-31", "2020-09-01", "2020-09-02", "2020-09-03", "2020-09-04", "2020-09-08", "2020-09-09", "2020-09-10", "2020-09-11", "2020-09-14", "2020-09-15", "2020-09-16", "2020-09-17", "2020-09-18", "2020-09-21", "2020-09-22", "2020-09-23", "2020-09-24", "2020-09-25", "2020-09-28", "2020-09-29", "2020-09-30", "2020-10-01", "2020-10-02", "2020-10-05", "2020-10-06", "2020-10-07", "2020-10-08", "2020-10-09", "2020-10-12", "2020-10-13", "2020-10-14", "2020-10-15", "2020-10-16", "2020-10-19", "2020-10-20", "2020-10-21", "2020-10-22", "2020-10-23", "2020-10-26", "2020-10-27", "2020-10-28", "2020-10-29", "2020-10-30", "2020-11-02", "2020-11-03", "2020-11-04", "2020-11-05", "2020-11-06", "2020-11-09", "2020-11-10", "2020-11-11", "2020-11-12", "2020-11-13", "2020-11-16", "2020-11-17", "2020-11-18", "2020-11-19", "2020-11-20", "2020-11-23", "2020-11-24", "2020-11-25", "2020-11-27", "2020-11-30", "2020-12-01", "2020-12-02", "2020-12-03", "2020-12-04", "2020-12-07", "2020-12-08", "2020-12-09", "2020-12-10", "2020-12-11", "2020-12-14", "2020-12-15", "2020-12-16", "2020-12-17", "2020-12-18", "2020-12-21", "2020-12-22", "2020-12-23", "2020-12-24", "2020-12-28", "2020-12-29", "2020-12-30", "2020-12-31", "2021-01-04", "2021-01-05", "2021-01-06", "2021-01-07", "2021-01-08", "2021-01-11", "2021-01-12", "2021-01-13", "2021-01-14", "2021-01-15", "2021-01-19", "2021-01-20", "2021-01-21", "2021-01-22", "2021-01-25", "2021-01-26", "2021-01-27", "2021-01-28", "2021-01-29", "2021-02-01", "2021-02-02", "2021-02-03", "2021-02-04", "2021-02-05", "2021-02-08", "2021-02-09", "2021-02-10", "2021-02-11", "2021-02-12", "2021-02-16", "2021-02-17", "2021-02-18", "2021-02-19", "2021-02-22", "2021-02-23", "2021-02-24", "2021-02-25", "2021-02-26", "2021-03-01", "2021-03-02", "2021-03-03", "2021-03-04", "2021-03-05", "2021-03-08", "2021-03-09", "2021-03-10", "2021-03-11", "2021-03-12", "2021-03-15", "2021-03-16", "2021-03-17", "2021-03-18", "2021-03-19", "2021-03-22", "2021-03-23", "2021-03-24", "2021-03-25", "2021-03-26", "2021-03-29", "2021-03-30", "2021-03-31", "2021-04-01", "2021-04-05", "2021-04-06", "2021-04-07", "2021-04-08", "2021-04-09", "2021-04-12", "2021-04-13", "2021-04-14", "2021-04-15", "2021-04-16", "2021-04-19", "2021-04-20", "2021-04-21", "2021-04-22", "2021-04-23", "2021-04-26", "2021-04-27", "2021-04-28", "2021-04-29", "2021-04-30", "2021-05-03", "2021-05-04", "2021-05-05", "2021-05-06", "2021-05-07", "2021-05-10", "2021-05-11", "2021-05-12", "2021-05-13", "2021-05-14", "2021-05-17", "2021-05-18", "2021-05-19", "2021-05-20", "2021-05-21", "2021-05-24", "2021-05-25", "2021-05-26", "2021-05-27", "2021-05-28", "2021-06-01", "2021-06-02", "2021-06-03", "2021-06-04", "2021-06-07", "2021-06-08"], "x_labels_major": null, "x_labels_major_count": null, "x_labels_major_every": 7, "x_title": null, "xrange": null, "y_label_rotation": 0, "y_labels": null, "y_labels_major": null, "y_labels_major_count": null, "y_labels_major_every": null, "y_title": null, "zero": 0, "legends": ["Open", "High", "Low", "Close"]}</script><script type="text/javascript" xlink:href="https://kozea.github.io/pygal.js/2.0.x/pygal-tooltips.min.js" /></defs><title>KDP stock price over 1 year</title><g class="graph line-graph vertical"><rect x="0" y="0" width="800" height="600" class="background" /><g transform="translate(106, 46)" class="plot"><rect x="0" y="0" width="674.0" height="464.0" class="background" /><g class="axis y always_show"><path d="M0.000000 464.000000 h674.000000" class="line" /><g class="guides"><path d="M0.000000 440.974360 h674.000000" class="guide line" /><text x="-5" y="444.4743603251793" class="">27</text><title>27</title></g><g class="guides"><path d="M0.000000 398.239322 h674.000000" class="guide line" /><text x="-5" y="401.73932168353105" class="">28</text><title>28</title></g><g class="guides"><path d="M0.000000 355.504283 h674.000000" class="guide line" /><text x="-5" y="359.0042830418828" class="">29</text><title>29</title></g><g class="guides"><path d="M0.000000 312.769244 h674.000000" class="major guide line" /><text x="-5" y="316.26924440023447" class="major">30</text><title>30</title></g><g class="guides"><path d="M0.000000 270.034206 h674.000000" class="guide line" /><text x="-5" y="273.53420575858627" class="">31</text><title>31</title></g><g class="guides"><path d="M0.000000 227.299167 h674.000000" class="guide line" /><text x="-5" y="230.79916711693798" class="">32</text><title>32</title></g><g class="guides"><path d="M0.000000 184.564128 h674.000000" class="guide line" /><text x="-5" y="188.0641284752897" class="">33</text><title>33</title></g><g class="guides"><path d="M0.000000 141.829090 h674.000000" class="guide line" /><text x="-5" y="145.32908983364143" class="">34</text><title>34</title></g><g class="guides"><path d="M0.000000 99.094051 h674.000000" class="major guide line" /><text x="-5" y="102.59405119199317" class="major">35</text><title>35</title></g><g class="guides"><path d="M0.000000 56.359013 h674.000000" class="guide line" /><text x="-5" y="59.859012550344914" class="">36</text><title>36</title></g><g class="guides"><path d="M0.000000 13.623974 h674.000000" class="guide line" /><text x="-5" y="17.123973908696655" class="">37</text><title>37</title></g></g><g class="axis x"><g class="guides"><path d="M12.961538 0.000000 v464.000000" class="major line" /><text x="12.961538461538462" y="479.0" class="major backwards" transform="rotate(270 12.961538 479.000000)">2020-06-09</text></g><g class="guides"><path d="M31.035397 0.000000 v464.000000" class="major guide line" /><text x="31.035396874042295" y="479.0" class="major backwards" transform="rotate(270 31.035397 479.000000)">2020-06-18</text></g><g class="guides"><path d="M49.109255 0.000000 v464.000000" class="major guide line" /><text x="49.109255286546116" y="479.0" class="major backwards" transform="rotate(270 49.109255 479.000000)">2020-06-29</text></g><g class="guides"><path d="M67.183114 0.000000 v464.000000" class="major guide line" /><text x="67.18311369904994" y="479.0" class="major backwards" transform="rotate(270 67.183114 479.000000)">2020-07-09</text></g><g class="guides"><path d="M85.256972 0.000000 v464.000000" class="major guide line" /><text x="85.25697211155378" y="479.0" class="major backwards" transform="rotate(270 85.256972 479.000000)">2020-07-20</text></g><g class="guides"><path d="M103.330831 0.000000 v464.000000" class="major guide line" /><text x="103.33083052405759" y="479.0" class="major backwards" transform="rotate(270 103.330831 479.000000)">2020-07-29</text></g><g class="guides"><path d="M121.404689 0.000000 v464.000000" class="major guide line" /><text x="121.40468893656143" y="479.0" class="major backwards" transform="rotate(270 121.404689 479.000000)">2020-08-07</text></g><g class="guides"><path d="M139.478547 0.000000 v464.000000" class="major guide line" /><text x="139.47854734906525" y="479.0" class="major backwards" transform="rotate(270 139.478547 479.000000)">2020-08-18</text></g><g class="guides"><path d="M157.552406 0.000000 v464.000000" class="major guide line" /><text x="157.55240576156908" y="479.0" class="major backwards" transform="rotate(270 157.552406 479.000000)">2020-08-27</text></g><g class="guides"><path d="M175.626264 0.000000 v464.000000" class="major guide line" /><text x="175.62626417407293" y="479.0" class="major backwards" transform="rotate(270 175.626264 479.000000)">2020-09-08</text></g><g class="guides"><path d="M193.700123 0.000000 v464.000000" class="major guide line" /><text x="193.70012258657675" y="479.0" class="major backwards" transform="rotate(270 193.700123 479.000000)">2020-09-17</text></g><g class="guides"><path d="M211.773981 0.000000 v464.000000" class="major guide line" /><text x="211.7739809990806" y="479.0" class="major backwards" transform="rotate(270 211.773981 479.000000)">2020-09-28</text></g><g class="guides"><path d="M229.847839 0.000000 v464.000000" class="major guide line" /><text x="229.84783941158443" y="479.0" class="major backwards" transform="rotate(270 229.847839 479.000000)">2020-10-07</text></g><g class="guides"><path d="M247.921698 0.000000 v464.000000" class="major guide line" /><text x="247.92169782408826" y="479.0" class="major backwards" transform="rotate(270 247.921698 479.000000)">2020-10-16</text></g><g class="guides"><path d="M265.995556 0.000000 v464.000000" class="major guide line" /><text x="265.9955562365921" y="479.0" class="major backwards" transform="rotate(270 265.995556 479.000000)">2020-10-27</text></g><g class="guides"><path d="M284.069415 0.000000 v464.000000" class="major guide line" /><text x="284.06941464909596" y="479.0" class="major backwards" transform="rotate(270 284.069415 479.000000)">2020-11-05</text></g><g class="guides"><path d="M302.143273 0.000000 v464.000000" class="major guide line" /><text x="302.14327306159976" y="479.0" class="major backwards" transform="rotate(270 302.143273 479.000000)">2020-11-16</text></g><g class="guides"><path d="M320.217131 0.000000 v464.000000" class="major guide line" /><text x="320.2171314741036" y="479.0" class="major backwards" transform="rotate(270 320.217131 479.000000)">2020-11-25</text></g><g class="guides"><path d="M338.290990 0.000000 v464.000000" class="major guide line" /><text x="338.2909898866074" y="479.0" class="major backwards" transform="rotate(270 338.290990 479.000000)">2020-12-07</text></g><g class="guides"><path d="M356.364848 0.000000 v464.000000" class="major guide line" /><text x="356.36484829911126" y="479.0" class="major backwards" transform="rotate(270 356.364848 479.000000)">2020-12-16</text></g><g class="guides"><path d="M374.438707 0.000000 v464.000000" class="major guide line" /><text x="374.43870671161505" y="479.0" class="major backwards" transform="rotate(270 374.438707 479.000000)">2020-12-28</text></g><g class="guides"><path d="M392.512565 0.000000 v464.000000" class="major guide line" /><text x="392.51256512411896" y="479.0" class="major backwards" transform="rotate(270 392.512565 479.000000)">2021-01-07</text></g><g class="guides"><path d="M410.586424 0.000000 v464.000000" class="major guide line" /><text x="410.58642353662276" y="479.0" class="major backwards" transform="rotate(270 410.586424 479.000000)">2021-01-19</text></g><g class="guides"><path d="M428.660282 0.000000 v464.000000" class="major guide line" /><text x="428.66028194912656" y="479.0" class="major backwards" transform="rotate(270 428.660282 479.000000)">2021-01-28</text></g><g class="guides"><path d="M446.734140 0.000000 v464.000000" class="major guide line" /><text x="446.7341403616304" y="479.0" class="major backwards" transform="rotate(270 446.734140 479.000000)">2021-02-08</text></g><g class="guides"><path d="M464.807999 0.000000 v464.000000" class="major guide line" /><text x="464.80799877413426" y="479.0" class="major backwards" transform="rotate(270 464.807999 479.000000)">2021-02-18</text></g><g class="guides"><path d="M482.881857 0.000000 v464.000000" class="major guide line" /><text x="482.8818571866381" y="479.0" class="major backwards" transform="rotate(270 482.881857 479.000000)">2021-03-01</text></g><g class="guides"><path d="M500.955716 0.000000 v464.000000" class="major guide line" /><text x="500.9557155991419" y="479.0" class="major backwards" transform="rotate(270 500.955716 479.000000)">2021-03-10</text></g><g class="guides"><path d="M519.029574 0.000000 v464.000000" class="major guide line" /><text x="519.0295740116458" y="479.0" class="major backwards" transform="rotate(270 519.029574 479.000000)">2021-03-19</text></g><g class="guides"><path d="M537.103432 0.000000 v464.000000" class="major guide line" /><text x="537.1034324241496" y="479.0" class="major backwards" transform="rotate(270 537.103432 479.000000)">2021-03-30</text></g><g class="guides"><path d="M555.177291 0.000000 v464.000000" class="major guide line" /><text x="555.1772908366535" y="479.0" class="major backwards" transform="rotate(270 555.177291 479.000000)">2021-04-09</text></g><g class="guides"><path d="M573.251149 0.000000 v464.000000" class="major guide line" /><text x="573.2511492491573" y="479.0" class="major backwards" transform="rotate(270 573.251149 479.000000)">2021-04-20</text></g><g class="guides"><path d="M591.325008 0.000000 v464.000000" class="major guide line" /><text x="591.3250076616611" y="479.0" class="major backwards" transform="rotate(270 591.325008 479.000000)">2021-04-29</text></g><g class="guides"><path d="M609.398866 0.000000 v464.000000" class="major guide line" /><text x="609.3988660741649" y="479.0" class="major backwards" transform="rotate(270 609.398866 479.000000)">2021-05-10</text></g><g class="guides"><path d="M627.472724 0.000000 v464.000000" class="major guide line" /><text x="627.4727244866688" y="479.0" class="major backwards" transform="rotate(270 627.472724 479.000000)">2021-05-19</text></g><g class="guides"><path d="M645.546583 0.000000 v464.000000" class="major guide line" /><text x="645.5465828991726" y="479.0" class="major backwards" transform="rotate(270 645.546583 479.000000)">2021-05-28</text></g></g><g class="series serie-0 color-0"><path d="M12.961538 388.837656 L15.543518 380.290605 18.125498 360.205180 20.707478 368.324752 23.289458 406.359022 25.871437 347.384583 28.453417 371.316290 31.035397 370.461547 33.617377 341.829071 36.199356 368.324752 38.781336 343.111079 41.363316 359.350437 43.945296 382.427315 46.527276 382.854665 49.109255 383.709409 51.691235 386.273468 54.273215 382.854665 56.855195 361.487146 59.437174 370.461547 62.019154 371.316290 64.601134 355.504283 67.183114 344.393173 69.765093 354.222189 72.347073 341.829071 74.929053 363.623983 77.511033 332.427319 80.093013 336.273473 82.674992 331.145311 85.256972 322.170910 87.838952 312.769244 90.420932 311.487151 93.002911 299.948776 95.584891 305.931638 98.166871 289.692281 100.748851 270.034206 103.330831 262.341899 105.912810 273.453009 108.494790 261.914506 111.076770 312.341894 113.658750 320.888944 116.240729 314.051338 118.822709 313.623945 121.404689 316.188047 123.986669 334.564114 126.568648 322.598303 129.150628 324.307705 131.732608 305.931638 134.314588 305.504288 136.896568 317.042748 139.478547 366.615393 142.060527 348.666677 144.642507 349.094027 147.224487 346.957233 149.806466 355.931633 152.388446 348.239326 154.970426 316.615398 157.552406 316.188047 160.134386 312.769244 162.716365 308.495741 165.298345 316.188047 167.880325 312.769244 170.462305 293.111169 173.044284 319.606851 175.626264 340.119626 178.208244 354.222189 180.790224 356.358984 183.372203 372.598298 185.954183 355.931633 188.536163 358.495736 191.118143 359.777787 193.700123 391.829066 196.282102 379.863255 198.864082 408.495731 201.446062 399.094022 204.028042 401.230774 206.610021 425.162353 209.192001 434.991498 211.773981 393.538425 214.355961 399.094022 216.937941 434.991498 219.519920 415.760688 222.101900 414.478594 224.683880 385.418853 227.265860 412.769235 229.847839 388.837656 232.429819 369.179495 235.011799 363.196590 237.593779 308.495741 240.175759 329.435867 242.757738 315.333304 245.339718 337.982917 247.921698 339.692276 250.503678 325.589713 253.085657 335.418858 255.667637 355.504283 258.249617 347.811976 260.831597 321.316295 263.413576 349.094027 265.995556 376.871802 268.577536 392.683809 271.159516 424.307738 273.741496 438.837651 276.323475 428.153891 278.905455 426.871798 281.487435 364.051334 284.069415 373.880350 286.651394 354.649582 289.233374 331.572704 291.815354 430.290601 294.397334 375.589708 296.979314 333.709413 299.561293 351.230779 302.143273 342.683814 304.725253 385.418853 307.307233 336.273473 309.889212 350.376036 312.471192 332.854670 315.053172 314.478689 317.635152 312.769244 320.217131 308.923091 322.799111 292.256426 325.381091 278.581256 327.963071 286.273478 330.545051 286.700828 333.127030 309.350441 335.709010 299.948776 338.290990 290.547024 340.872970 287.128221 343.454949 300.803391 346.036929 292.256426 348.618909 302.940186 351.200889 293.538434 353.782869 297.811981 356.364848 305.504288 358.946828 286.273478 361.528808 255.504293 364.110788 288.410272 366.692767 280.290615 369.274747 279.863265 371.856727 244.393183 374.438707 227.299167 377.020686 223.025749 379.602666 225.589723 382.184646 231.572671 384.766626 224.307714 387.348606 243.965789 389.930585 277.299162 392.512565 255.931643 395.094545 243.538439 397.676525 223.453014 400.258504 240.546986 402.840484 258.068352 405.422464 246.102627 408.004444 249.521387 410.586424 233.282030 413.168403 234.136773 415.750383 228.581261 418.332363 247.811986 420.914343 249.948780 423.496322 226.017159 426.078302 202.940195 428.660282 178.153787 431.242262 233.709423 433.824241 227.299167 436.406221 229.435876 438.988201 233.282030 441.570181 233.282030 444.152161 208.495793 446.734140 205.931648 449.316120 226.017159 451.898100 201.658229 454.480080 228.153868 457.062059 230.290620 459.644039 237.982927 462.226019 247.811986 464.807999 248.239336 467.389979 244.393183 469.971958 258.923096 472.553938 229.863227 475.135918 244.820533 477.717898 261.487155 480.299877 273.453009 482.881857 279.435872 485.463837 272.170915 488.045817 284.991469 490.627797 279.863265 493.209776 264.905958 495.791756 237.982927 498.373736 197.812033 500.955716 170.034215 503.537695 168.752207 506.119675 172.170925 508.701655 149.093961 511.283635 155.504302 513.865614 160.632464 516.447594 144.820543 519.029574 117.042682 521.611554 141.829090 524.193534 105.076914 526.775513 119.606870 529.357493 112.769264 531.939473 134.136783 534.521453 89.692300 537.103432 80.717985 539.685412 110.632512 542.267392 124.734989 544.849372 121.743579 547.431352 103.794948 550.013331 89.692300 552.595311 84.991403 555.177291 85.846146 557.759271 88.837556 560.341250 81.572685 562.923230 80.290677 565.505210 75.589823 568.087190 64.906063 570.669169 52.085594 573.251149 57.213713 575.833129 48.666706 578.415109 56.786277 580.997089 58.068457 583.579068 55.504312 586.161048 76.444523 588.743028 76.871831 591.325008 91.829180 593.906987 59.777901 596.488967 57.641021 599.070947 52.085594 601.652927 73.453113 604.234907 43.111108 606.816886 41.829099 609.398866 31.145340 611.980846 37.982946 614.562826 77.299267 617.144805 81.572685 619.726785 53.794867 622.308765 54.222303 624.890745 54.222303 627.472724 63.196619 630.054704 73.453113 632.636684 28.153887 635.218664 34.564228 637.800644 19.606837 640.382623 31.572605 642.964603 14.478675 645.546583 23.880469 648.128563 13.623974 650.710542 18.324871 653.292522 23.453033 655.874502 12.341965 658.456482 17.042862 661.038462 81.145420" class="line reactive nofill" /></g><g class="series serie-1 color-1"><path d="M12.961538 373.880350 L15.543518 366.188043 18.125498 345.247874 20.707478 361.914539 23.289458 372.598298 25.871437 342.683814 28.453417 351.230779 31.035397 351.658130 33.617377 335.846208 36.199356 346.529968 38.781336 330.717961 41.363316 356.786377 43.945296 372.598298 46.527276 373.025649 49.109255 377.726503 51.691235 379.008512 54.273215 365.333342 56.855195 361.487146 59.437174 367.042743 62.019154 334.136764 64.601134 352.512830 67.183114 317.042748 69.765093 346.529968 72.347073 337.555567 74.929053 339.265011 77.511033 329.863260 80.093013 327.299158 82.674992 321.316295 85.256972 314.905954 87.838952 312.769244 90.420932 296.957237 93.002911 294.820528 95.584891 296.957237 98.166871 271.316300 100.748851 265.760702 103.330831 249.948780 105.912810 270.034206 108.494790 259.350446 111.076770 303.367579 113.658750 307.213732 116.240729 312.341894 118.822709 313.623945 121.404689 313.196595 123.986669 320.034201 126.568648 315.333304 129.150628 300.803391 131.732608 289.692281 134.314588 305.504288 136.896568 306.358989 139.478547 344.393173 142.060527 328.153901 144.642507 337.128216 147.224487 346.957233 149.806466 347.384583 152.388446 341.829071 154.970426 310.205185 157.552406 302.940186 160.134386 308.923091 162.716365 305.076937 165.298345 311.487151 167.880325 292.256426 170.462305 288.837665 173.044284 313.196595 175.626264 336.273473 178.208244 326.017064 180.790224 352.085480 183.372203 355.931633 185.954183 352.085480 188.536163 350.376036 191.118143 355.931633 193.700123 374.735093 196.282102 379.863255 198.864082 400.803381 201.446062 388.837656 204.028042 395.675262 206.610021 418.752140 209.192001 400.376031 211.773981 387.128212 214.355961 399.094022 216.937941 414.478594 219.519920 389.692271 222.101900 390.119622 224.683880 381.572699 227.265860 388.837656 229.847839 369.179495 232.429819 359.777787 235.011799 342.683814 237.593779 299.094032 240.175759 311.914544 242.757738 308.068347 245.339718 325.162448 247.921698 312.769244 250.503678 306.786382 253.085657 326.871807 255.667637 341.401720 258.249617 325.589713 260.831597 317.470141 263.413576 346.529968 265.995556 365.760692 268.577536 381.572699 271.159516 403.367569 273.741496 433.709404 276.323475 417.470132 278.905455 396.957228 281.487435 360.632530 284.069415 360.205180 286.651394 354.649582 289.233374 324.307705 291.815354 377.726503 294.397334 324.735098 296.979314 332.427319 299.561293 335.418858 302.143273 326.444457 304.725253 342.256464 307.307233 323.025654 309.889212 312.341894 312.471192 312.341894 315.053172 312.769244 317.635152 308.495741 320.217131 293.538434 322.799111 279.863265 325.381091 276.871812 327.963071 284.136769 330.545051 286.700828 333.127030 296.102622 335.709010 287.128221 338.290990 276.871812 340.872970 277.299162 343.454949 296.102622 346.036929 285.418862 348.618909 293.111169 351.200889 276.871812 353.782869 295.675229 356.364848 283.709418 358.946828 262.341899 361.528808 249.521387 364.110788 273.880359 366.692767 264.051343 369.274747 238.410277 371.856727 231.572671 374.438707 221.316304 377.020686 217.042672 379.602666 217.897416 382.184646 223.025749 384.766626 220.461561 387.348606 239.692371 389.930585 224.735022 392.512565 234.991474 395.094545 226.444466 397.676525 223.025749 400.258504 239.692371 402.840484 240.119636 405.422464 238.410277 408.004444 223.880279 410.586424 223.025749 413.168403 225.589723 415.750383 228.581261 418.332363 239.692371 420.914343 217.897416 423.496322 196.102589 426.078302 163.623874 428.660282 155.076995 431.242262 202.512759 433.824241 220.461561 436.406221 209.350536 438.988201 218.324852 441.570181 213.623955 444.152161 191.829000 446.734140 195.675153 449.316120 207.641092 451.898100 200.376050 454.480080 216.188143 457.062059 230.290620 459.644039 235.846218 462.226019 241.401730 464.807999 236.700833 467.389979 235.418867 469.971958 237.555576 472.553938 217.042672 475.135918 240.974379 477.717898 223.880279 480.299877 261.914506 482.881857 265.760702 485.463837 263.196600 488.045817 261.914506 490.627797 250.803396 493.209776 238.410277 495.791756 198.666777 498.373736 170.888916 500.955716 139.692381 503.537695 156.359003 506.119675 167.897506 508.701655 149.093961 511.283635 132.000031 513.865614 132.000031 516.447594 134.991484 519.029574 114.905973 521.611554 110.632512 524.193534 101.658196 526.775513 116.615417 529.357493 108.068367 531.939473 85.846146 534.521453 74.735079 537.103432 77.299267 539.685412 98.666786 542.267392 111.059819 544.849372 94.393154 547.431352 88.410292 550.013331 84.991403 552.595311 78.153797 555.177291 84.136873 557.759271 73.453113 560.341250 73.025635 562.923230 77.299267 565.505210 57.213713 568.087190 54.222303 570.669169 43.538544 573.251149 40.119655 575.833129 37.128202 578.415109 45.247988 580.997089 44.393244 583.579068 49.948671 586.161048 69.179481 588.743028 66.188071 591.325008 54.649568 593.906987 56.786277 596.488967 40.547091 599.070947 43.111108 601.652927 51.230851 604.234907 37.982946 606.816886 28.581152 609.398866 21.743589 611.980846 37.982946 614.562826 65.333328 617.144805 58.923158 619.726785 45.247988 622.308765 44.393244 624.890745 46.102518 627.472724 55.504312 630.054704 35.846194 632.636684 25.162434 635.218664 14.478675 637.800644 16.188119 640.382623 23.453033 642.964603 8.923077 645.546583 9.777820 648.128563 9.350556 650.710542 9.777820 653.292522 14.478675 655.874502 11.059829 658.456482 15.760683 661.038462 75.162387" class="line reactive nofill" /></g><g class="series serie-2 color-2"><path d="M12.961538 399.948766 L15.543518 388.410263 18.125498 388.837656 20.707478 413.623978 23.289458 413.196585 25.871437 384.136759 28.453417 373.880350 31.035397 370.461547 33.617377 368.324752 36.199356 373.025649 38.781336 354.649582 41.363316 387.555562 43.945296 390.547015 46.527276 395.675262 49.109255 401.658125 51.691235 392.256459 54.273215 384.564109 56.855195 379.008512 59.437174 383.709409 62.019154 373.880350 64.601134 379.008512 67.183114 355.504283 69.765093 365.760692 72.347073 360.632530 74.929053 366.188043 77.511033 343.965823 80.093013 341.829071 82.674992 337.555567 85.256972 326.017064 87.838952 326.444457 90.420932 319.606851 93.002911 305.931638 95.584891 310.632535 98.166871 291.829075 100.748851 282.000059 103.330831 271.743650 105.912810 313.196595 108.494790 294.820528 111.076770 326.871807 113.658750 322.170910 116.240729 319.179500 118.822709 323.880354 121.404689 332.000055 123.986669 341.401720 126.568648 334.991464 129.150628 328.581251 131.732608 308.923091 134.314588 323.025654 136.896568 324.307705 139.478547 383.282058 142.060527 349.094027 144.642507 355.076933 147.224487 361.914539 149.806466 363.196590 152.388446 352.085480 154.970426 330.290610 157.552406 320.888944 160.134386 326.444457 162.716365 320.034201 165.298345 321.743560 167.880325 314.051338 170.462305 330.290610 173.044284 353.367574 175.626264 371.316290 178.208244 358.495736 180.790224 376.444452 183.372203 378.153896 185.954183 366.615393 188.536163 366.188043 191.118143 381.145306 193.700123 393.111074 196.282102 403.794834 198.864082 422.598294 201.446062 408.068381 204.028042 434.136754 206.610021 440.974360 209.192001 436.700856 211.773981 405.931629 214.355961 437.128207 216.937941 434.991498 219.519920 424.735088 222.101900 414.478594 224.683880 414.905944 227.265860 414.905944 229.847839 393.538425 232.429819 374.307743 235.011799 370.461547 237.593779 323.453004 240.175759 332.427319 242.757738 332.427319 245.339718 342.256464 247.921698 343.965823 250.503678 350.803386 253.085657 345.675224 255.667637 364.051334 258.249617 351.658130 260.831597 349.948771 263.413576 393.111074 265.995556 385.418853 268.577536 418.752140 271.159516 433.282053 273.741496 455.076923 276.323475 452.940214 278.905455 426.871798 281.487435 396.529877 284.069415 382.854665 286.651394 375.589708 289.233374 411.487141 291.815354 435.846113 294.397334 378.153896 296.979314 364.478598 299.561293 351.230779 302.143273 351.658130 304.725253 387.555562 307.307233 343.111079 309.889212 350.376036 312.471192 333.282063 315.053172 327.726508 317.635152 318.752107 320.217131 313.623945 322.799111 298.666682 325.381091 314.478689 327.963071 300.376040 330.545051 317.470141 333.127030 315.333304 335.709010 309.350441 338.290990 292.256426 340.872970 308.923091 343.454949 309.777792 346.036929 310.205185 348.618909 312.341894 351.200889 306.358989 353.782869 313.196595 356.364848 305.504288 358.946828 286.273478 361.528808 290.547024 364.110788 296.529972 366.692767 284.136769 369.274747 283.282025 371.856727 246.102627 374.438707 241.829080 377.020686 233.282030 379.602666 236.273482 382.184646 241.829080 384.766626 268.324761 387.348606 259.350446 389.930585 278.153906 392.512565 257.213737 395.094545 248.239336 397.676525 258.068352 400.258504 264.051343 402.840484 261.487155 405.422464 257.213737 408.004444 255.504293 410.586424 243.965789 413.168403 254.222199 415.750383 248.666686 418.332363 258.068352 420.914343 250.803396 423.496322 229.008611 426.078302 208.068357 428.660282 210.632545 431.242262 237.555576 433.824241 237.982927 436.406221 240.119636 438.988201 254.649549 441.570181 243.538439 444.152161 218.324852 446.734140 232.000064 449.316120 234.564124 451.898100 232.427414 454.480080 237.982927 457.062059 246.529977 459.644039 258.923096 462.226019 258.923096 464.807999 258.923096 467.389979 262.341899 469.971958 267.470146 472.553938 254.649549 475.135918 268.324761 477.717898 294.820528 480.299877 300.803391 482.881857 293.538434 485.463837 281.572666 488.045817 288.410272 490.627797 284.564119 493.209776 273.025658 495.791756 246.102627 498.373736 201.658229 500.955716 172.170925 503.537695 180.717975 506.119675 197.384597 508.701655 176.017078 511.283635 156.786268 513.865614 163.196609 516.447594 155.076995 519.029574 138.410201 521.611554 148.239431 524.193534 122.598280 526.775513 128.581185 529.357493 126.444433 531.939473 135.418749 534.521453 99.521316 537.103432 108.495802 539.685412 126.444433 542.267392 132.000031 544.849372 123.453023 547.431352 109.350546 550.013331 96.957342 552.595311 88.837556 555.177291 103.367470 557.759271 94.393154 560.341250 89.264992 562.923230 90.119736 565.505210 75.589823 568.087190 70.034225 570.669169 63.623884 573.251149 58.495722 575.833129 52.512859 578.415109 62.769354 580.997089 62.341875 583.579068 75.589823 586.161048 87.128283 588.743028 90.974437 591.325008 91.829180 593.906987 88.410292 596.488967 63.623884 599.070947 71.316191 601.652927 77.299267 604.234907 54.649568 606.816886 48.666706 609.398866 44.393244 611.980846 77.299267 614.562826 88.410292 617.144805 82.854694 619.726785 61.914610 622.308765 63.623884 624.890745 58.923158 627.472724 74.735079 630.054704 73.453113 632.636684 49.521406 635.218664 38.410382 637.800644 35.418758 640.382623 39.692390 642.964603 32.854784 645.546583 23.880469 648.128563 23.453033 650.710542 27.299186 653.292522 34.136792 655.874502 23.025725 658.456482 27.299186 661.038462 114.051229" class="line reactive nofill" /></g><g class="series serie-3 color-3"><path d="M12.961538 384.136759 L15.543518 376.871802 18.125498 383.709409 20.707478 393.111074 23.289458 373.452999 25.871437 370.888940 28.453417 366.615393 31.035397 352.940223 33.617377 367.897487 36.199356 347.384583 38.781336 354.222189 41.363316 381.145306 43.945296 381.145306 46.527276 388.837656 49.109255 385.418853 51.691235 381.145306 54.273215 369.606846 56.855195 375.589708 59.437174 374.307743 62.019154 350.376036 64.601134 372.170905 67.183114 355.504283 69.765093 346.957233 72.347073 358.923086 74.929053 340.974370 77.511033 337.555567 80.093013 331.572704 82.674992 322.170910 85.256972 322.598303 87.838952 317.897492 90.420932 299.948776 93.002911 301.230784 95.584891 298.239331 98.166871 271.743650 100.748851 274.735103 103.330831 258.923096 105.912810 279.863265 108.494790 287.555572 111.076770 316.188047 113.658750 314.905954 116.240729 315.760697 118.822709 320.034201 121.404689 328.581251 123.986669 323.025654 126.568648 331.145311 129.150628 308.068347 131.732608 305.931638 134.314588 317.470141 136.896568 323.453004 139.478547 351.230779 142.060527 340.974370 144.642507 347.384583 147.224487 358.495736 149.806466 348.666677 152.388446 342.683814 154.970426 321.316295 157.552406 315.760697 160.134386 309.777792 162.716365 320.034201 165.298345 314.905954 167.880325 295.675229 170.462305 321.316295 173.044284 332.427319 175.626264 361.487146 178.208244 333.282063 180.790224 375.589708 183.372203 362.769240 185.954183 363.623983 188.536163 364.051334 191.118143 379.863255 193.700123 384.991502 196.282102 396.102612 198.864082 403.794834 201.446062 404.649577 204.028042 432.854660 206.610021 429.863250 209.192001 403.367569 211.773981 405.076928 214.355961 436.273463 216.937941 415.333337 219.519920 397.811971 222.101900 394.393168 224.683880 412.341884 227.265860 396.957228 229.847839 372.598298 232.429819 368.324752 235.011799 344.820523 237.593779 321.316295 240.175759 320.034201 242.757738 326.871807 245.339718 336.700823 247.921698 323.025654 250.503678 346.957233 253.085657 345.675224 255.667637 348.666677 258.249617 332.000055 260.831597 346.529968 263.413576 379.435862 265.995556 372.598298 268.577536 409.777782 271.159516 432.854660 273.741496 445.247864 276.323475 439.264916 278.905455 406.786372 281.487435 388.410263 284.069415 364.051334 286.651394 370.034196 289.233374 409.777782 291.815354 382.000050 294.397334 338.410268 296.979314 353.367574 299.561293 342.683814 302.143273 336.273473 304.725253 347.384583 307.307233 333.709413 309.889212 323.025654 312.471192 319.606851 315.053172 320.034201 317.635152 317.470141 320.217131 298.666682 322.799111 280.290615 325.381091 293.538434 327.963071 293.538434 330.545051 309.350441 333.127030 308.495741 335.709010 290.119631 338.290990 282.427410 340.872970 305.504288 343.454949 301.658134 346.036929 305.076937 348.618909 297.384588 351.200889 297.811981 353.782869 304.649544 356.364848 285.418862 358.946828 264.478693 361.528808 273.025658 364.110788 279.863265 366.692767 267.042753 369.274747 243.965789 371.856727 232.427414 374.438707 227.726518 377.020686 227.299167 379.602666 234.991474 382.184646 227.299167 384.766626 244.820533 387.348606 242.683824 389.930585 237.555576 392.512565 235.846218 395.094545 227.299167 397.676525 254.649549 400.258504 254.649549 402.840484 241.829080 405.422464 246.957242 408.004444 233.282030 410.586424 234.991474 413.168403 229.435876 415.750383 246.957242 418.332363 249.948780 420.914343 226.017159 423.496322 200.376050 426.078302 176.017078 428.660282 209.350536 431.242262 235.846218 433.824241 230.717970 436.406221 227.726518 438.988201 230.717970 441.570181 214.478698 444.152161 204.649639 446.734140 223.025749 449.316120 210.205066 451.898100 226.017159 454.480080 231.145321 457.062059 237.128226 459.644039 252.085490 462.226019 241.829080 464.807999 238.410277 467.389979 259.777796 469.971958 240.974379 472.553938 236.273482 475.135918 250.376131 477.717898 276.017068 480.299877 290.547024 482.881857 274.735103 485.463837 279.435872 488.045817 286.273478 490.627797 275.162453 493.209776 247.384593 495.791756 207.213656 498.373736 180.717975 500.955716 160.632464 503.537695 171.743660 506.119675 168.752207 508.701655 159.777721 511.283635 137.982936 513.865614 137.555671 516.447594 146.529987 519.029574 135.846227 521.611554 117.042682 524.193534 115.760674 526.775513 126.017168 529.357493 118.752126 531.939473 88.837556 534.521453 78.153797 537.103432 102.940205 539.685412 126.017168 542.267392 120.461571 544.849372 99.094051 547.431352 96.102598 550.013331 87.555591 552.595311 85.846146 555.177291 91.829180 557.759271 78.153797 560.341250 82.854694 562.923230 83.709395 565.505210 63.623884 568.087190 55.931748 570.669169 50.803415 573.251149 49.094141 575.833129 43.111108 578.415109 55.077004 580.997089 48.666706 583.579068 73.025635 586.161048 77.299267 588.743028 90.119736 591.325008 58.923158 593.906987 62.769354 596.488967 53.367560 599.070947 68.324781 601.652927 56.786277 604.234907 42.256364 606.816886 30.718075 609.398866 40.119655 611.980846 67.042772 614.562826 80.717985 617.144805 68.324781 619.726785 54.222303 622.308765 57.641021 624.890745 56.359013 627.472724 65.333328 630.054704 39.692390 632.636684 46.102518 635.218664 19.606837 637.800644 34.991493 640.382623 33.282049 642.964603 28.581152 645.546583 15.333418 648.128563 18.324871 650.710542 11.487265 653.292522 17.042862 655.874502 17.470127 658.456482 20.461580 661.038462 88.410292" class="line reactive nofill" /></g></g><g class="titles"><text x="400.0" y="26" class="title plot_title">KDP stock price over 1 year</text></g><g transform="translate(106, 46)" class="plot overlay"><g class="series serie-0 color-0" /><g class="series serie-1 color-1" /><g class="series serie-2 color-2" /><g class="series serie-3 color-3" /></g><g transform="translate(106, 46)" class="plot text-overlay"><g class="series serie-0 color-0" /><g class="series serie-1 color-1" /><g class="series serie-2 color-2" /><g class="series serie-3 color-3" /></g><g transform="translate(106, 46)" class="plot tooltip-overlay"><g transform="translate(0 0)" style="opacity: 0" class="tooltip"><rect rx="0" ry="0" width="0" height="0" class="tooltip-box" /><g class="text" /></g></g><g transform="translate(10, 56)" class="legends"><g id="activate-serie-0" class="legend reactive activate-serie"><rect x="0.0" y="1.0" width="12" height="12" class="color-0 reactive" /><text x="17.0" y="11.2">Open</text></g><g id="activate-serie-1" class="legend reactive activate-serie"><rect x="0.0" y="22.0" width="12" height="12" class="color-1 reactive" /><text x="17.0" y="32.2">High</text></g><g id="activate-serie-2" class="legend reactive activate-serie"><rect x="0.0" y="43.0" width="12" height="12" class="color-2 reactive" /><text x="17.0" y="53.2">Low</text></g><g id="activate-serie-3" class="legend reactive activate-serie"><rect x="0.0" y="64.0" width="12" height="12" class="color-3 reactive" /><text x="17.0" y="74.2">Close</text></g></g><g transform="translate(790, 56)" class="legends" /></g></svg>